<mxfile host="65bd71144e">
    <diagram id="8DtszeBpPk615TdrCxlv" name="Page-1">
        <mxGraphModel dx="848" dy="820" grid="1" gridSize="10" guides="1" tooltips="1" connect="1" arrows="1" fold="1" page="0" pageScale="1" pageWidth="827" pageHeight="1169" math="0" shadow="0">
            <root>
                <mxCell id="0"/>
                <mxCell id="1" parent="0"/>
                <mxCell id="2" value="" style="whiteSpace=wrap;html=1;rotation=-90;" vertex="1" parent="1">
                    <mxGeometry x="210" y="240" width="393.7" height="590.55" as="geometry"/>
                </mxCell>
                <mxCell id="3" value="" style="rounded=1;whiteSpace=wrap;html=1;absoluteArcSize=1;arcSize=14;strokeWidth=2;aspect=fixed;glass=0;shadow=1;rotation=-90;" vertex="1" parent="1">
                    <mxGeometry x="142" y="625" width="61.417199999999994" height="61.417199999999994" as="geometry"/>
                </mxCell>
                <mxCell id="4" value="" style="rounded=1;whiteSpace=wrap;html=1;absoluteArcSize=1;arcSize=14;strokeWidth=2;aspect=fixed;glass=0;shadow=1;rotation=-90;" vertex="1" parent="1">
                    <mxGeometry x="142" y="545" width="61.417199999999994" height="61.417199999999994" as="geometry"/>
                </mxCell>
                <mxCell id="5" value="" style="rounded=1;whiteSpace=wrap;html=1;absoluteArcSize=1;arcSize=14;strokeWidth=2;aspect=fixed;glass=0;shadow=1;rotation=-90;" vertex="1" parent="1">
                    <mxGeometry x="142" y="465" width="61.417199999999994" height="61.417199999999994" as="geometry"/>
                </mxCell>
                <mxCell id="6" value="" style="rounded=1;whiteSpace=wrap;html=1;absoluteArcSize=1;arcSize=14;strokeWidth=2;aspect=fixed;glass=0;shadow=1;rotation=-90;" vertex="1" parent="1">
                    <mxGeometry x="142" y="385" width="61.417199999999994" height="61.417199999999994" as="geometry"/>
                </mxCell>
                <mxCell id="8" value="" style="rounded=1;whiteSpace=wrap;html=1;absoluteArcSize=1;arcSize=14;strokeWidth=2;aspect=fixed;glass=0;shadow=1;rotation=-90;" vertex="1" parent="1">
                    <mxGeometry x="230" y="385" width="61.417199999999994" height="61.417199999999994" as="geometry"/>
                </mxCell>
                <mxCell id="9" value="" style="rounded=1;whiteSpace=wrap;html=1;absoluteArcSize=1;arcSize=14;strokeWidth=2;aspect=fixed;glass=0;shadow=1;rotation=-90;" vertex="1" parent="1">
                    <mxGeometry x="230" y="465" width="61.417199999999994" height="61.417199999999994" as="geometry"/>
                </mxCell>
                <mxCell id="10" value="" style="rounded=1;whiteSpace=wrap;html=1;absoluteArcSize=1;arcSize=14;strokeWidth=2;aspect=fixed;glass=0;shadow=1;rotation=-90;" vertex="1" parent="1">
                    <mxGeometry x="230" y="545" width="61.417199999999994" height="61.417199999999994" as="geometry"/>
                </mxCell>
                <mxCell id="11" value="" style="rounded=1;whiteSpace=wrap;html=1;absoluteArcSize=1;arcSize=14;strokeWidth=2;aspect=fixed;glass=0;shadow=1;rotation=-90;" vertex="1" parent="1">
                    <mxGeometry x="230" y="625" width="61.417199999999994" height="61.417199999999994" as="geometry"/>
                </mxCell>
                <mxCell id="12" value="" style="rounded=1;whiteSpace=wrap;html=1;absoluteArcSize=1;arcSize=14;strokeWidth=2;aspect=fixed;glass=0;shadow=1;rotation=-90;" vertex="1" parent="1">
                    <mxGeometry x="320" y="385" width="61.417199999999994" height="61.417199999999994" as="geometry"/>
                </mxCell>
                <mxCell id="13" value="" style="rounded=1;whiteSpace=wrap;html=1;absoluteArcSize=1;arcSize=14;strokeWidth=2;aspect=fixed;glass=0;shadow=1;rotation=-90;" vertex="1" parent="1">
                    <mxGeometry x="320" y="465" width="61.417199999999994" height="61.417199999999994" as="geometry"/>
                </mxCell>
                <mxCell id="14" value="" style="rounded=1;whiteSpace=wrap;html=1;absoluteArcSize=1;arcSize=14;strokeWidth=2;aspect=fixed;glass=0;shadow=1;rotation=-90;" vertex="1" parent="1">
                    <mxGeometry x="320" y="545" width="61.417199999999994" height="61.417199999999994" as="geometry"/>
                </mxCell>
                <mxCell id="15" value="" style="rounded=1;whiteSpace=wrap;html=1;absoluteArcSize=1;arcSize=14;strokeWidth=2;aspect=fixed;glass=0;shadow=1;rotation=-90;" vertex="1" parent="1">
                    <mxGeometry x="320" y="625" width="61.417199999999994" height="61.417199999999994" as="geometry"/>
                </mxCell>
                <mxCell id="16" value="" style="rounded=1;whiteSpace=wrap;html=1;absoluteArcSize=1;arcSize=14;strokeWidth=2;aspect=fixed;glass=0;shadow=1;rotation=-90;" vertex="1" parent="1">
                    <mxGeometry x="410" y="385" width="61.417199999999994" height="61.417199999999994" as="geometry"/>
                </mxCell>
                <mxCell id="17" value="" style="rounded=1;whiteSpace=wrap;html=1;absoluteArcSize=1;arcSize=14;strokeWidth=2;aspect=fixed;glass=0;shadow=1;rotation=-90;" vertex="1" parent="1">
                    <mxGeometry x="410" y="465" width="61.417199999999994" height="61.417199999999994" as="geometry"/>
                </mxCell>
                <mxCell id="18" value="" style="rounded=1;whiteSpace=wrap;html=1;absoluteArcSize=1;arcSize=14;strokeWidth=2;aspect=fixed;glass=0;shadow=1;rotation=-90;" vertex="1" parent="1">
                    <mxGeometry x="410" y="545" width="61.417199999999994" height="61.417199999999994" as="geometry"/>
                </mxCell>
                <mxCell id="19" value="" style="rounded=1;whiteSpace=wrap;html=1;absoluteArcSize=1;arcSize=14;strokeWidth=2;aspect=fixed;glass=0;shadow=1;rotation=-90;" vertex="1" parent="1">
                    <mxGeometry x="410" y="625" width="61.417199999999994" height="61.417199999999994" as="geometry"/>
                </mxCell>
                <mxCell id="21" value="" style="whiteSpace=wrap;html=1;aspect=fixed;fillColor=#d5e8d4;strokeColor=#82b366;rotation=-90;" vertex="1" parent="1">
                    <mxGeometry x="760" y="374.37" width="200.78699999999998" height="82.67699999999999" as="geometry"/>
                </mxCell>
                <mxCell id="22" value="" style="whiteSpace=wrap;html=1;fillColor=#dae8fc;strokeColor=#6c8ebf;rotation=-90;" vertex="1" parent="1">
                    <mxGeometry x="730" y="320" width="90.551" height="70.866" as="geometry"/>
                </mxCell>
                <mxCell id="43" value="" style="group" vertex="1" connectable="0" parent="1">
                    <mxGeometry x="530" y="379.99999999999994" width="70.86699999999996" height="93.85249999999996" as="geometry"/>
                </mxCell>
                <mxCell id="23" value="" style="whiteSpace=wrap;html=1;fillColor=#bac8d3;strokeColor=#23445d;rotation=0;" vertex="1" parent="43">
                    <mxGeometry y="5.269999999999982" width="70.866" height="88.5825" as="geometry"/>
                </mxCell>
                <mxCell id="24" value="" style="rounded=0;whiteSpace=wrap;html=1;fillColor=#eeeeee;strokeColor=#36393d;" vertex="1" parent="43">
                    <mxGeometry x="25.42999999999995" width="20" height="20" as="geometry"/>
                </mxCell>
                <mxCell id="25" value="" style="rounded=0;whiteSpace=wrap;html=1;fillColor=#ffcccc;strokeColor=#36393d;" vertex="1" parent="43">
                    <mxGeometry x="25.42999999999995" y="83.84999999999991" width="20" height="10" as="geometry"/>
                </mxCell>
                <mxCell id="26" value="" style="ellipse;whiteSpace=wrap;html=1;aspect=fixed;fillColor=#e51400;fontColor=#ffffff;strokeColor=#B20000;" vertex="1" parent="43">
                    <mxGeometry x="66.92999999999995" y="13.850000000000023" width="3.937" height="3.94" as="geometry"/>
                </mxCell>
                <mxCell id="27" value="" style="ellipse;whiteSpace=wrap;html=1;aspect=fixed;fillColor=#333333;fontColor=#ffffff;strokeColor=#4D4D4D;" vertex="1" parent="43">
                    <mxGeometry x="66.92999999999995" y="22.850000000000023" width="3.937" height="3.94" as="geometry"/>
                </mxCell>
                <mxCell id="28" value="" style="ellipse;whiteSpace=wrap;html=1;aspect=fixed;fillColor=#e51400;fontColor=#ffffff;strokeColor=#B20000;" vertex="1" parent="43">
                    <mxGeometry x="66.92999999999995" y="32.84999999999991" width="3.937" height="3.94" as="geometry"/>
                </mxCell>
                <mxCell id="29" value="" style="ellipse;whiteSpace=wrap;html=1;aspect=fixed;fillColor=#60a917;fontColor=#ffffff;strokeColor=#2D7600;" vertex="1" parent="43">
                    <mxGeometry x="66.92999999999995" y="41.84999999999991" width="3.937" height="3.94" as="geometry"/>
                </mxCell>
                <mxCell id="30" value="" style="ellipse;whiteSpace=wrap;html=1;aspect=fixed;fillColor=#60a917;fontColor=#ffffff;strokeColor=#2D7600;" vertex="1" parent="43">
                    <mxGeometry x="66.92999999999995" y="51.84999999999991" width="3.937" height="3.94" as="geometry"/>
                </mxCell>
                <mxCell id="31" value="" style="ellipse;whiteSpace=wrap;html=1;aspect=fixed;fillColor=#60a917;fontColor=#ffffff;strokeColor=#2D7600;" vertex="1" parent="43">
                    <mxGeometry x="66.92999999999995" y="60.84999999999991" width="3.937" height="3.94" as="geometry"/>
                </mxCell>
                <mxCell id="32" value="" style="ellipse;whiteSpace=wrap;html=1;aspect=fixed;fillColor=#60a917;fontColor=#ffffff;strokeColor=#2D7600;" vertex="1" parent="43">
                    <mxGeometry x="66.92999999999995" y="70.84999999999991" width="3.937" height="3.94" as="geometry"/>
                </mxCell>
                <mxCell id="33" value="" style="ellipse;whiteSpace=wrap;html=1;aspect=fixed;fillColor=#60a917;fontColor=#ffffff;strokeColor=#2D7600;" vertex="1" parent="43">
                    <mxGeometry x="66.92999999999995" y="79.90999999999985" width="3.937" height="3.94" as="geometry"/>
                </mxCell>
                <mxCell id="34" value="" style="ellipse;whiteSpace=wrap;html=1;aspect=fixed;fillColor=#60a917;fontColor=#ffffff;strokeColor=#2D7600;" vertex="1" parent="43">
                    <mxGeometry x="0.15999999999996817" y="13.850000000000023" width="3.937" height="3.94" as="geometry"/>
                </mxCell>
                <mxCell id="35" value="" style="ellipse;whiteSpace=wrap;html=1;aspect=fixed;fillColor=#60a917;fontColor=#ffffff;strokeColor=#2D7600;" vertex="1" parent="43">
                    <mxGeometry x="0.15999999999996817" y="22.84999999999991" width="3.937" height="3.94" as="geometry"/>
                </mxCell>
                <mxCell id="36" value="" style="ellipse;whiteSpace=wrap;html=1;aspect=fixed;fillColor=#60a917;fontColor=#ffffff;strokeColor=#2D7600;" vertex="1" parent="43">
                    <mxGeometry x="0.15999999999996817" y="32.84999999999991" width="3.937" height="3.94" as="geometry"/>
                </mxCell>
                <mxCell id="37" value="" style="ellipse;whiteSpace=wrap;html=1;aspect=fixed;fillColor=#60a917;fontColor=#ffffff;strokeColor=#2D7600;" vertex="1" parent="43">
                    <mxGeometry x="0.15999999999996817" y="41.84999999999991" width="3.937" height="3.94" as="geometry"/>
                </mxCell>
                <mxCell id="38" value="" style="ellipse;whiteSpace=wrap;html=1;aspect=fixed;fillColor=#60a917;fontColor=#ffffff;strokeColor=#2D7600;" vertex="1" parent="43">
                    <mxGeometry x="0.15999999999996817" y="51.84999999999991" width="3.937" height="3.94" as="geometry"/>
                </mxCell>
                <mxCell id="39" value="" style="ellipse;whiteSpace=wrap;html=1;aspect=fixed;fillColor=#60a917;fontColor=#ffffff;strokeColor=#2D7600;" vertex="1" parent="43">
                    <mxGeometry x="0.15999999999996817" y="60.84999999999991" width="3.937" height="3.94" as="geometry"/>
                </mxCell>
                <mxCell id="40" value="" style="ellipse;whiteSpace=wrap;html=1;aspect=fixed;fillColor=#60a917;fontColor=#ffffff;strokeColor=#2D7600;" vertex="1" parent="43">
                    <mxGeometry x="0.15999999999996817" y="70.84999999999991" width="3.937" height="3.94" as="geometry"/>
                </mxCell>
                <mxCell id="41" value="" style="ellipse;whiteSpace=wrap;html=1;aspect=fixed;fillColor=#60a917;fontColor=#ffffff;strokeColor=#2D7600;" vertex="1" parent="43">
                    <mxGeometry x="0.15999999999996817" y="79.90999999999985" width="3.937" height="3.94" as="geometry"/>
                </mxCell>
                <mxCell id="42" value="" style="rhombus;whiteSpace=wrap;html=1;fillColor=#647687;fontColor=#ffffff;strokeColor=#314354;" vertex="1" parent="43">
                    <mxGeometry x="20.42999999999995" y="36.79000000000008" width="30" height="30" as="geometry"/>
                </mxCell>
            </root>
        </mxGraphModel>
    </diagram>
</mxfile>